<?xml version="1.0" standalone="no"?>
<!DOCTYPE svg PUBLIC "-//W3C//DTD SVG 20010904//EN"
 "http://www.w3.org/TR/2001/REC-SVG-20010904/DTD/svg10.dtd">
<svg version="1.0" xmlns="http://www.w3.org/2000/svg"
 width="700.000000pt" height="700.000000pt" viewBox="0 0 700.000000 700.000000"
 preserveAspectRatio="xMidYMid meet">
<metadata>
Created by potrace 1.14, written by Peter Selinger 2001-2017
</metadata>
<g transform="translate(0.000000,700.000000) scale(0.100000,-0.100000)"
fill="#000000" stroke="none">
<path d="M2950 6863 c-14 -2 -70 -11 -125 -19 -519 -81 -1029 -307 -1456 -645
-134 -105 -393 -364 -498 -498 -354 -447 -573 -953 -655 -1512 -9 -59 -16
-121 -16 -138 l0 -31 114 0 113 0 6 -41 c13 -97 93 -158 232 -179 93 -13 971
-13 1072 0 108 15 192 57 244 122 21 28 63 100 93 162 186 389 422 631 787
805 215 104 265 145 311 259 l23 57 0 585 0 585 -23 57 c-15 36 -37 68 -60 87
-20 17 -45 37 -54 46 -16 13 -18 34 -18 160 l0 145 -32 -1 c-18 -1 -44 -3 -58
-6z m70 -813 l0 -799 -42 -11 c-306 -76 -532 -202 -744 -414 -66 -67 -145
-157 -176 -201 -109 -157 -196 -344 -235 -507 l-18 -78 -792 0 -793 0 0 30 c0
43 27 215 51 328 162 755 607 1434 1238 1885 345 247 735 421 1146 511 129 29
280 53 333 55 l32 1 0 -800z"/>
<path d="M3610 6051 l0 -809 28 -6 c15 -4 60 -16 100 -28 65 -19 75 -25 94
-60 14 -24 37 -45 64 -59 37 -17 48 -19 84 -9 53 14 110 67 170 155 64 95 434
740 482 842 52 107 60 181 29 247 -21 42 -59 82 -98 105 -14 7 -11 18 26 85
l41 76 -37 16 c-205 87 -365 141 -551 185 -115 28 -360 69 -409 69 l-23 0 0
-809z"/>
<path d="M5112 6258 c-37 -62 -782 -1357 -782 -1360 0 -2 33 -38 74 -79 l75
-76 62 33 c35 19 64 34 65 34 1 0 4 -27 6 -60 4 -52 9 -66 36 -93 31 -30 37
-32 105 -32 64 0 82 5 158 42 48 22 221 119 385 213 505 292 545 318 591 398
36 61 37 126 1 204 -15 32 -22 60 -17 65 23 23 -292 384 -475 541 -104 90
-248 202 -259 202 -3 0 -14 -15 -25 -32z"/>
<path d="M6090 5011 c-36 -21 -344 -199 -685 -396 -341 -197 -625 -362 -631
-367 -9 -6 -7 -25 7 -71 90 -297 84 -649 -16 -943 -76 -223 -229 -463 -393
-616 l-50 -47 76 -133 c116 -205 724 -1262 729 -1268 2 -2 12 1 21 6 14 9 27
3 70 -37 125 -114 240 -85 443 109 551 528 884 1228 950 2002 44 514 -79 1212
-245 1383 -28 28 -49 66 -71 126 -61 163 -118 291 -129 291 -6 0 -40 -17 -76
-39z"/>
<path d="M3225 4504 c-369 -60 -636 -350 -662 -720 -15 -211 63 -424 217 -589
36 -38 83 -96 104 -128 48 -71 153 -170 231 -216 187 -113 426 -136 634 -62
113 39 184 85 277 176 92 91 150 182 190 300 39 113 46 295 16 413 -26 101
-68 190 -126 270 -25 33 -57 85 -72 114 -102 202 -289 360 -494 418 -74 21
-250 34 -315 24z"/>
<path d="M214 3374 c22 -244 114 -593 224 -854 19 -47 36 -86 37 -88 2 -2 20
5 40 15 30 14 39 15 43 5 11 -35 72 -99 112 -120 96 -50 193 -20 483 151 78
46 223 130 322 187 301 172 378 228 416 301 37 73 14 149 -57 191 -35 20 -35
22 -18 35 11 8 25 18 33 22 11 6 8 29 -15 119 l-29 112 -799 0 -799 0 7 -76z"/>
<path d="M1453 2328 c-618 -358 -691 -403 -682 -419 15 -29 165 -216 244 -304
39 -44 93 -111 120 -150 62 -89 249 -275 391 -389 338 -272 735 -476 1154
-593 144 -40 301 -54 364 -33 56 18 102 64 128 128 23 57 23 61 26 586 2 340
-1 554 -8 598 -14 90 -44 153 -100 207 l-45 44 -5 110 -5 109 -90 23 c-260 66
-487 193 -690 387 -57 54 -104 98 -106 98 -2 -1 -315 -181 -696 -402z"/>
<path d="M3720 2243 c-47 -13 -91 -26 -98 -28 -10 -4 -12 -169 -10 -802 l3
-798 40 3 c22 1 63 5 91 8 l51 5 11 -41 c16 -64 51 -108 110 -137 50 -24 59
-25 155 -20 172 9 447 97 534 171 85 72 94 177 25 319 -42 88 -415 742 -465
817 -17 25 -45 63 -63 85 -34 42 -264 423 -264 437 0 12 -27 8 -120 -19z"/>
</g>
</svg>
